<svg width="111" height="132" viewBox="0 0 111 132" fill="none" xmlns="http://www.w3.org/2000/svg">
<path d="M92.5568 16.3591C86.2737 14.6822 80.1355 12.5032 74.2014 9.84318C68.3632 7.31061 62.7274 4.33511 57.3432 0.942727L55.8182 0L54.3209 0.970455C48.9367 4.36284 43.3009 7.33834 37.4627 9.87091C31.5188 12.5229 25.3713 14.6926 19.0795 16.3591L17 16.8859V40.0105C17 77.1373 54.515 91.0286 54.8755 91.1673L55.8182 91.5L56.7609 91.1673C57.1491 91.1673 94.6364 77.165 94.6364 40.0105V16.8859L92.5568 16.3591Z" fill="#37C1D3"/>
<path d="M67.9507 49.3672C68.2997 49.8586 68.8003 50.228 69.3792 50.4216C69.9581 50.6152 70.5852 50.6228 71.1689 50.4434C71.7526 50.2639 72.2623 49.9067 72.6237 49.4239C72.9852 48.9411 73.1793 48.358 73.178 47.7597C73.1793 47.1614 72.9852 46.5783 72.6237 46.0956C72.2623 45.6128 71.7526 45.2556 71.1689 45.0761C70.5852 44.8966 69.9581 44.9042 69.3792 45.0978C68.8003 45.2915 68.2997 45.6609 67.9507 46.1523H66.6028C66.6028 43.6287 65.7809 41.3301 64.3015 39.4172L66.5041 37.2633C67.4247 37.424 68.3616 37.1668 69.0685 36.5078C70.1698 35.3987 70.1698 33.6144 69.0685 32.4893C67.9342 31.4123 66.1096 31.4123 64.959 32.4893C64.285 33.1804 64.022 34.0967 64.1864 34.9968L61.9837 37.1508C60.4714 36.0417 58.6961 35.3022 56.74 35.029V32.7786C57.2425 32.4373 57.6203 31.9478 57.8183 31.3817C58.0163 30.8156 58.0241 30.2024 57.8405 29.6316C57.657 29.0609 57.2917 28.5624 56.798 28.209C56.3043 27.8555 55.708 27.6657 55.0962 27.667C54.4843 27.6657 53.888 27.8555 53.3944 28.209C52.9007 28.5624 52.5354 29.0609 52.3518 29.6316C52.1683 30.2024 52.1761 30.8156 52.3741 31.3817C52.572 31.9478 52.9499 32.4373 53.4524 32.7786V35.029C51.973 35.2379 50.5922 35.7041 49.3429 36.4114L47.5183 33.8556C47.8306 33.0197 47.7484 32.0553 47.1895 31.2837C46.9728 30.9805 46.6971 30.722 46.3782 30.5231C46.0592 30.3242 45.7033 30.1887 45.3307 30.1245C44.9581 30.0603 44.5763 30.0686 44.207 30.1489C43.8377 30.2292 43.4883 30.38 43.1787 30.5925C41.8801 31.4766 41.5513 33.2287 42.4718 34.4985C43.0307 35.2862 43.9184 35.7041 44.8225 35.7041L46.7621 38.4046C46.0553 39.0957 45.4964 39.8673 45.0197 40.7192C44.5015 40.5213 43.9359 40.4736 43.3908 40.5819C42.8456 40.6903 42.3439 40.95 41.9458 41.3301C40.8445 42.4553 40.8445 44.2234 41.9458 45.3486C42.4225 45.7826 42.9978 46.0398 43.5896 46.1523C43.5896 47.0203 43.7047 47.8562 43.8855 48.6599L41.7321 49.2225C41.0417 48.6599 40.0883 48.4188 39.1349 48.6599C38.3981 48.856 37.7712 49.3303 37.392 49.9784C37.0129 50.6265 36.9125 51.3954 37.113 52.1158C37.3136 52.8363 37.7986 53.4494 38.4614 53.8201C39.1242 54.1909 39.9104 54.2891 40.6472 54.093C41.5842 53.8358 42.291 53.1607 42.5869 52.3248L45.069 51.6658C45.8087 52.9356 46.795 54.0608 47.9457 54.9931L46.1375 58.208C45.2334 58.3365 44.4115 58.8348 43.9348 59.6868C43.7556 60.0119 43.6437 60.3683 43.6054 60.7356C43.5671 61.103 43.6031 61.4742 43.7115 61.8279C43.8199 62.1817 43.9984 62.5111 44.237 62.7974C44.4756 63.0836 44.7695 63.3212 45.1019 63.4964C45.4343 63.6716 45.7988 63.781 46.1745 63.8185C46.5502 63.856 46.9298 63.8207 47.2915 63.7147C47.6533 63.6087 47.9901 63.4341 48.2829 63.2008C48.5756 62.9676 48.8185 62.6802 48.9977 62.3551C49.458 61.5192 49.4415 60.5548 49.0306 59.7671L50.7894 56.6005C52.1209 57.1149 53.5675 57.4042 55.0962 57.4042H55.3921C55.1784 57.8222 55.0962 58.3044 55.0962 58.8188C55.2277 60.378 56.6085 61.5353 58.1865 61.4228C59.7646 61.3103 60.9645 59.944 60.8495 58.4008C60.7837 57.5971 60.3728 56.8899 59.781 56.4237C60.5536 56.0862 61.2933 55.6522 61.9837 55.1539L65.8302 58.9152C65.6658 59.8154 65.9288 60.7316 66.6028 61.4228C67.7534 62.4998 69.5616 62.4998 70.7123 61.4228C71.8629 60.3458 71.8136 58.5294 70.7123 57.4042C70.0054 56.7452 69.0685 56.488 68.1479 56.6488L64.3015 52.8874C65.1069 51.8426 65.7316 50.6531 66.1261 49.3672H67.9507V49.3672ZM52.6305 46.1523C51.2661 46.1523 50.1648 45.0753 50.1648 43.7412C50.1648 42.407 51.2661 41.3301 52.6305 41.3301C53.9948 41.3301 55.0962 42.407 55.0962 43.7412C55.0962 45.0753 53.9948 46.1523 52.6305 46.1523V46.1523ZM58.3838 50.9746C57.4797 50.9746 56.74 50.2512 56.74 49.3672C56.74 48.4831 57.4797 47.7597 58.3838 47.7597C59.2879 47.7597 60.0276 48.4831 60.0276 49.3672C60.0276 50.2512 59.2879 50.9746 58.3838 50.9746Z" fill="white"/>
<path d="M9.13281 120.064L13.6445 105.094H18.2109L11.2793 125H7L0.0957031 105.094H4.64844L9.13281 120.064ZM27.7812 125C27.599 124.645 27.4668 124.202 27.3848 123.674C26.4277 124.74 25.1836 125.273 23.6523 125.273C22.2031 125.273 21 124.854 20.043 124.016C19.0951 123.177 18.6211 122.12 18.6211 120.844C18.6211 119.276 19.1999 118.073 20.3574 117.234C21.5241 116.396 23.2057 115.972 25.4023 115.963H27.2207V115.115C27.2207 114.432 27.043 113.885 26.6875 113.475C26.3411 113.064 25.7897 112.859 25.0332 112.859C24.3678 112.859 23.8438 113.019 23.4609 113.338C23.0872 113.657 22.9004 114.094 22.9004 114.65H18.9492C18.9492 113.794 19.2135 113.001 19.7422 112.271C20.2708 111.542 21.0182 110.973 21.9844 110.562C22.9505 110.143 24.0352 109.934 25.2383 109.934C27.0612 109.934 28.5059 110.394 29.5723 111.314C30.6478 112.226 31.1855 113.511 31.1855 115.17V121.582C31.1947 122.986 31.3906 124.048 31.7734 124.768V125H27.7812ZM24.5137 122.252C25.097 122.252 25.6348 122.124 26.127 121.869C26.6191 121.605 26.9837 121.254 27.2207 120.816V118.273H25.7441C23.7663 118.273 22.7135 118.957 22.5859 120.324L22.5723 120.557C22.5723 121.049 22.7454 121.454 23.0918 121.773C23.4382 122.092 23.9121 122.252 24.5137 122.252ZM40.373 122.088C41.1022 122.088 41.6947 121.887 42.1504 121.486C42.6061 121.085 42.8431 120.552 42.8613 119.887H46.5664C46.5573 120.889 46.2839 121.81 45.7461 122.648C45.2083 123.478 44.4701 124.125 43.5312 124.59C42.6016 125.046 41.5716 125.273 40.4414 125.273C38.3268 125.273 36.6589 124.604 35.4375 123.264C34.2161 121.915 33.6055 120.055 33.6055 117.686V117.426C33.6055 115.147 34.2116 113.329 35.4238 111.971C36.6361 110.613 38.2995 109.934 40.4141 109.934C42.2643 109.934 43.7454 110.462 44.8574 111.52C45.9785 112.568 46.5482 113.967 46.5664 115.717H42.8613C42.8431 114.951 42.6061 114.331 42.1504 113.857C41.6947 113.374 41.0931 113.133 40.3457 113.133C39.4251 113.133 38.7279 113.47 38.2539 114.145C37.7891 114.81 37.5566 115.895 37.5566 117.398V117.809C37.5566 119.331 37.7891 120.424 38.2539 121.09C38.7188 121.755 39.4251 122.088 40.373 122.088ZM54.9746 122.088C55.7038 122.088 56.2962 121.887 56.752 121.486C57.2077 121.085 57.4447 120.552 57.4629 119.887H61.168C61.1589 120.889 60.8854 121.81 60.3477 122.648C59.8099 123.478 59.0716 124.125 58.1328 124.59C57.2031 125.046 56.1732 125.273 55.043 125.273C52.9284 125.273 51.2604 124.604 50.0391 123.264C48.8177 121.915 48.207 120.055 48.207 117.686V117.426C48.207 115.147 48.8132 113.329 50.0254 111.971C51.2376 110.613 52.901 109.934 55.0156 109.934C56.8659 109.934 58.347 110.462 59.459 111.52C60.5801 112.568 61.1497 113.967 61.168 115.717H57.4629C57.4447 114.951 57.2077 114.331 56.752 113.857C56.2962 113.374 55.6947 113.133 54.9473 113.133C54.0267 113.133 53.3294 113.47 52.8555 114.145C52.3906 114.81 52.1582 115.895 52.1582 117.398V117.809C52.1582 119.331 52.3906 120.424 52.8555 121.09C53.3203 121.755 54.0267 122.088 54.9746 122.088ZM74.0059 119.777C74.0059 119.003 73.7324 118.41 73.1855 118C72.6387 117.581 71.6543 117.143 70.2324 116.688C68.8105 116.223 67.6849 115.767 66.8555 115.32C64.5951 114.099 63.4648 112.454 63.4648 110.385C63.4648 109.309 63.7656 108.352 64.3672 107.514C64.9779 106.666 65.8483 106.005 66.9785 105.531C68.1178 105.057 69.3939 104.82 70.8066 104.82C72.2285 104.82 73.4954 105.08 74.6074 105.6C75.7194 106.11 76.5807 106.835 77.1914 107.773C77.8112 108.712 78.1211 109.779 78.1211 110.973H74.0195C74.0195 110.061 73.7324 109.355 73.1582 108.854C72.584 108.343 71.7773 108.088 70.7383 108.088C69.7357 108.088 68.9564 108.302 68.4004 108.73C67.8444 109.15 67.5664 109.706 67.5664 110.398C67.5664 111.046 67.89 111.588 68.5371 112.025C69.1934 112.463 70.1549 112.873 71.4219 113.256C73.7552 113.958 75.4551 114.828 76.5215 115.867C77.5879 116.906 78.1211 118.201 78.1211 119.75C78.1211 121.473 77.4694 122.826 76.166 123.811C74.8626 124.786 73.1081 125.273 70.9023 125.273C69.3711 125.273 67.9766 124.995 66.7188 124.439C65.4609 123.874 64.4993 123.104 63.834 122.129C63.1777 121.154 62.8496 120.023 62.8496 118.738H66.9648C66.9648 120.935 68.2773 122.033 70.9023 122.033C71.8776 122.033 72.6387 121.837 73.1855 121.445C73.7324 121.044 74.0059 120.488 74.0059 119.777ZM84.8203 125H80.8555V110.207H84.8203V125ZM80.623 106.379C80.623 105.786 80.819 105.299 81.2109 104.916C81.612 104.533 82.1543 104.342 82.8379 104.342C83.5124 104.342 84.0501 104.533 84.4512 104.916C84.8522 105.299 85.0527 105.786 85.0527 106.379C85.0527 106.98 84.8477 107.473 84.4375 107.855C84.0365 108.238 83.5033 108.43 82.8379 108.43C82.1725 108.43 81.6348 108.238 81.2246 107.855C80.8236 107.473 80.623 106.98 80.623 106.379ZM91.793 110.207L91.916 111.861C92.9642 110.576 94.3815 109.934 96.168 109.934C98.0729 109.934 99.3809 110.686 100.092 112.189C101.131 110.686 102.612 109.934 104.535 109.934C106.139 109.934 107.333 110.403 108.117 111.342C108.901 112.271 109.293 113.675 109.293 115.553V125H105.328V115.566C105.328 114.728 105.164 114.117 104.836 113.734C104.508 113.342 103.929 113.146 103.1 113.146C101.915 113.146 101.094 113.712 100.639 114.842L100.652 125H96.7012V115.58C96.7012 114.723 96.5326 114.104 96.1953 113.721C95.8581 113.338 95.2839 113.146 94.4727 113.146C93.3516 113.146 92.5404 113.611 92.0391 114.541V125H88.0879V110.207H91.793Z" fill="#37C1D3"/>
</svg>
