<svg width="39" height="38" viewBox="0 0 39 38" fill="none" xmlns="http://www.w3.org/2000/svg">
<path d="M12.2362 8.51346L8.45475 12.3103L6.52381 10.3715C6.14904 9.99397 5.9386 9.48269 5.9386 8.94968C5.9386 8.41667 6.14904 7.9054 6.52381 7.5279L7.47319 6.57467C7.84916 6.19837 8.35836 5.98708 8.88921 5.98708C9.42006 5.98708 9.92926 6.19837 10.3052 6.57467L12.2362 8.51346Z" fill="#4ADD95"/>
<path d="M23.8619 15.4689L15.5669 23.8056L7.17542 15.38C6.80065 15.0025 6.59021 14.4912 6.59021 13.9582C6.59021 13.4252 6.80065 12.9139 7.17542 12.5364L12.6384 7.05127C13.0143 6.67498 13.5235 6.46368 14.0544 6.46368C14.5852 6.46368 15.0944 6.67498 15.4704 7.05127L23.8619 15.4689Z" fill="#4ADD95"/>
<path d="M7.76282 27.7963C7.48122 28.0871 7.17549 28.386 6.88585 28.693C6.87086 28.7183 6.86164 28.7467 6.85886 28.776C6.85608 28.8053 6.8598 28.8349 6.86976 28.8626C6.94048 29.2422 6.87399 29.6346 6.68225 29.9692C6.49052 30.3039 6.18612 30.5589 5.82383 30.6883C5.5989 30.7711 5.35859 30.803 5.11997 30.7819C4.88135 30.7608 4.65029 30.6872 4.4432 30.5663C4.23612 30.4455 4.0581 30.2802 3.92181 30.0825C3.78552 29.8847 3.69429 29.6592 3.65462 29.422C3.61494 29.1848 3.6278 28.9417 3.69227 28.7101C3.75674 28.4784 3.87123 28.2639 4.02762 28.0817C4.18402 27.8995 4.37846 27.7542 4.59713 27.656C4.81579 27.5578 5.05332 27.5092 5.29282 27.5136C5.35496 27.5065 5.41788 27.512 5.47787 27.5297C5.64683 27.5863 5.75142 27.5216 5.85601 27.4005C6.10543 27.1339 6.37093 26.8835 6.60425 26.6411C6.31461 26.1564 6.04106 25.6879 5.75947 25.2113C5.40546 25.6636 4.93077 25.906 4.32736 25.8656C3.97518 25.8463 3.64019 25.7066 3.37798 25.4698C3.09743 25.2287 2.90767 24.8983 2.84033 24.5337C2.77298 24.1692 2.83212 23.7924 3.00788 23.4663C3.10837 23.2728 3.24732 23.1019 3.41614 22.9644C3.58496 22.8268 3.78008 22.7255 3.98944 22.6666C4.19888 22.6041 4.41874 22.5847 4.63582 22.6097C4.85289 22.6347 5.06269 22.7035 5.2526 22.812C5.39742 20.5905 5.62269 20.3885 6.16979 19.2576C5.92038 19.0637 5.65487 18.8698 5.41351 18.6598C5.20432 18.482 5.00318 18.3366 4.72159 18.4901C4.04576 18.579 3.49062 18.3609 3.10443 17.7954C2.72629 17.2461 2.7102 16.6483 3.03202 16.0747C3.36993 15.4769 3.90899 15.2023 4.59286 15.2588C5.0178 15.2961 5.4109 15.5003 5.68663 15.8271C5.96236 16.1538 6.09842 16.5767 6.0652 17.0037C6.05987 17.036 6.06386 17.0691 6.0767 17.0992C6.08953 17.1292 6.11067 17.155 6.13761 17.1734C6.45139 17.4157 6.76516 17.6581 7.0709 17.9004L7.16744 17.9731C8.18846 16.9553 9.51422 16.3025 10.9408 16.1151C10.965 15.9616 10.965 15.8485 10.8121 15.7435C10.5174 15.5308 10.303 15.2243 10.2037 14.8738C10.1044 14.5233 10.126 14.1494 10.265 13.8128C10.399 13.4812 10.6376 13.2029 10.9442 13.0205C11.2509 12.8381 11.6086 12.7617 11.9626 12.803C12.3215 12.8437 12.6563 13.0045 12.9132 13.2595C13.17 13.5145 13.334 13.8488 13.3786 14.2086C13.4591 14.8387 13.2418 15.3638 12.7269 15.7435C12.5741 15.8566 12.5741 15.9616 12.5982 16.1151C13.2698 16.2018 13.9239 16.3925 14.5372 16.6806C15.1474 16.9728 15.7113 17.3539 16.2107 17.8115C16.3716 17.65 16.5325 17.4884 16.6854 17.3268C16.7095 17.3026 16.7014 17.2299 16.6934 17.1814C16.5647 16.4221 16.9267 15.695 17.6186 15.3881C18.2462 15.1134 18.8416 15.1942 19.3565 15.6466C19.8714 16.099 20.0484 16.6967 19.8392 17.3672C19.63 18.0377 19.1634 18.4093 18.4795 18.4982C18.3051 18.5088 18.13 18.5034 17.9566 18.482C17.9163 18.482 17.86 18.474 17.8359 18.4982C17.6428 18.684 17.4497 18.8779 17.2807 19.0475C17.4658 19.4191 17.6347 19.7826 17.8117 20.1381C17.8365 20.1709 17.87 20.1961 17.9083 20.2108C18.56 20.4208 18.9703 20.8571 19.0749 21.5356C19.1795 22.2304 18.914 22.7797 18.3347 23.1755C18.3025 23.1998 18.2623 23.2321 18.2542 23.2644C18.1979 23.5875 18.1416 23.9187 18.0933 24.258C18.3427 24.363 18.6082 24.4681 18.8657 24.565C18.9095 24.5666 18.9523 24.5522 18.9864 24.5246C19.2717 24.3267 19.6124 24.2253 19.959 24.2352C20.3057 24.2451 20.6401 24.3658 20.9137 24.5797C21.1873 24.7937 21.3858 25.0897 21.4802 25.4247C21.5747 25.7597 21.5603 26.1162 21.439 26.4424C21.3177 26.7686 21.096 27.0475 20.806 27.2384C20.516 27.4293 20.1729 27.5223 19.8266 27.5039C19.4803 27.4856 19.1489 27.3567 18.8806 27.1361C18.6123 26.9156 18.421 26.6148 18.3347 26.2776C18.3281 26.2208 18.3046 26.1673 18.2672 26.1241C18.2299 26.0809 18.1806 26.0499 18.1255 26.0352C17.9083 25.9625 17.6911 25.8656 17.4658 25.7767C17.016 26.5806 16.4051 27.282 15.6716 27.8367C15.8084 28.0387 15.9371 28.2325 16.0658 28.4345C16.1946 28.6365 16.3474 28.8465 16.4842 29.0646C16.4988 29.0941 16.522 29.1185 16.5508 29.1343C16.5796 29.1502 16.6125 29.1569 16.6451 29.1535C16.9952 29.1515 17.3367 29.2627 17.6189 29.4707C17.9012 29.6787 18.1092 29.9725 18.2122 30.3085C18.3153 30.6444 18.3078 31.0048 18.191 31.3362C18.0742 31.6676 17.8542 31.9524 17.5636 32.1485C17.273 32.3446 16.9272 32.4415 16.5775 32.4249C16.2278 32.4084 15.8927 32.2792 15.6218 32.0565C15.3509 31.8338 15.1586 31.5294 15.0734 31.1884C14.9882 30.8474 15.0146 30.488 15.1486 30.1632C15.1639 30.1325 15.1705 30.0982 15.1676 30.064C15.1648 30.0299 15.1527 29.9971 15.1326 29.9694C14.859 29.5655 14.5855 29.1535 14.32 28.7495C14.2878 28.7011 14.2636 28.6526 14.1832 28.6849C13.6145 28.9169 13.0158 29.0665 12.4051 29.1292C12.3893 29.1333 12.3731 29.136 12.3568 29.1373C12.6062 29.6139 12.6545 30.0986 12.4534 30.5995C12.3127 30.9403 12.06 31.2226 11.7373 31.3992C11.398 31.5877 11.0029 31.6489 10.6228 31.5719C10.2427 31.4948 9.9022 31.2845 9.66231 30.9786C9.42241 30.6726 9.2987 30.291 9.31331 29.9018C9.32791 29.5127 9.47987 29.1415 9.74203 28.8546C9.40411 28.7011 9.05815 28.5637 8.72828 28.3941C8.41451 28.2245 8.10877 28.0144 7.76282 27.7963ZM11.7856 27.5216C12.7523 27.5224 13.6975 27.2354 14.5017 26.6968C15.3059 26.1582 15.933 25.3923 16.3037 24.4959C16.6744 23.5994 16.772 22.6128 16.5842 21.6606C16.3964 20.7085 15.9316 19.8337 15.2486 19.1468C14.5656 18.4599 13.6951 17.9918 12.7471 17.8016C11.7991 17.6115 10.8163 17.7078 9.9229 18.0786C9.02949 18.4493 8.26562 19.0776 7.7279 19.8842C7.19017 20.6908 6.90273 21.6394 6.90194 22.6101C6.90364 23.9108 7.41845 25.1578 8.33372 26.0783C9.24898 26.9988 10.4902 27.5178 11.7856 27.5216V27.5216Z" fill="#4ADD95"/>
<path d="M14.2314 25.0739C13.9092 25.0747 13.5939 24.9796 13.3256 24.8005C13.0572 24.6214 12.8478 24.3664 12.7237 24.0678C12.5997 23.7692 12.5666 23.4404 12.6287 23.1229C12.6908 22.8054 12.8452 22.5136 13.0725 22.2842C13.2998 22.0549 13.5897 21.8984 13.9056 21.8345C14.2215 21.7706 14.5491 21.8022 14.8471 21.9252C15.1451 22.0483 15.4001 22.2573 15.5798 22.5259C15.7595 22.7945 15.8558 23.1105 15.8566 23.4341C15.8576 23.649 15.8162 23.862 15.735 24.0609C15.6537 24.2597 15.5342 24.4405 15.3832 24.5929C15.2322 24.7453 15.0527 24.8662 14.8551 24.9487C14.6574 25.0313 14.4455 25.0738 14.2314 25.0739V25.0739Z" fill="#4ADD95"/>
<path d="M9.33948 20.9863C9.33949 20.8253 9.38695 20.6679 9.47589 20.5339C9.56483 20.3999 9.69126 20.2953 9.83928 20.2333C9.9873 20.1713 10.1503 20.1547 10.3077 20.1856C10.4651 20.2164 10.6099 20.2933 10.7238 20.4066C10.8378 20.5199 10.9158 20.6645 10.9481 20.8223C10.9803 20.98 10.9654 21.1438 10.9051 21.293C10.8448 21.4422 10.7419 21.5702 10.6094 21.6608C10.4768 21.7514 10.3205 21.8006 10.1601 21.8022C9.94487 21.799 9.73923 21.7122 9.58626 21.5601C9.43329 21.408 9.34486 21.2024 9.33948 20.9863Z" fill="#4ADD95"/>
<path d="M10.9728 25.8898C10.866 25.8902 10.7602 25.8693 10.6614 25.8284C10.5627 25.7875 10.473 25.7274 10.3975 25.6516C10.3219 25.5758 10.2621 25.4857 10.2214 25.3865C10.1806 25.2874 10.1598 25.1812 10.1602 25.0739C10.1602 24.9126 10.2078 24.7548 10.2971 24.6206C10.3864 24.4865 10.5133 24.3819 10.6618 24.3201C10.8103 24.2584 10.9737 24.2422 11.1313 24.2737C11.2889 24.3052 11.4337 24.3829 11.5474 24.497C11.661 24.6111 11.7384 24.7565 11.7698 24.9148C11.8011 25.073 11.785 25.2371 11.7235 25.3862C11.662 25.5353 11.5579 25.6627 11.4242 25.7523C11.2906 25.842 11.1335 25.8898 10.9728 25.8898V25.8898Z" fill="#4ADD95"/>
<path d="M22.0107 31.3605L6.63884 15.9261C6.12842 15.4121 5.8418 14.7159 5.8418 13.9901C5.8418 13.2643 6.12842 12.5681 6.63884 12.0542L12.1018 6.56899C12.6137 6.0565 13.307 5.76871 14.0299 5.76871C14.7528 5.76871 15.4462 6.0565 15.958 6.56899L31.3299 22.0042L22.0107 31.3605ZM14.0295 7.22172C13.8619 7.2211 13.6958 7.25367 13.5408 7.31757C13.3858 7.38147 13.2448 7.47545 13.126 7.59413L7.66304 13.0793C7.42353 13.3201 7.289 13.6465 7.289 13.9869C7.289 14.3272 7.42353 14.6537 7.66304 14.8945L22.0107 29.3045L29.2863 22.0042L14.9338 7.59413C14.8149 7.47539 14.6738 7.38138 14.5186 7.31748C14.3634 7.25357 14.1972 7.22103 14.0295 7.22172Z" fill="#1B2735"/>
<path d="M7.89151 12.7642L6.17217 11.0387C5.66175 10.5248 5.37512 9.82857 5.37512 9.10276C5.37512 8.37695 5.66175 7.68075 6.17217 7.16679L7.21809 6.11662C7.72986 5.60392 8.42328 5.31599 9.14621 5.31599C9.86915 5.31599 10.5626 5.60392 11.0743 6.11662L12.8049 7.83083L7.89151 12.7642ZM9.14662 6.77015C8.97868 6.76947 8.81228 6.80225 8.65705 6.86659C8.50182 6.93093 8.36085 7.02556 8.24229 7.14498L7.19637 8.19516C6.95686 8.43599 6.82233 8.76242 6.82233 9.10276C6.82233 9.4431 6.95686 9.76952 7.19637 10.0104L7.89151 10.7083L10.7493 7.83648L10.0574 7.14821C9.93824 7.02754 9.79633 6.93194 9.63994 6.86702C9.48355 6.8021 9.31584 6.76917 9.14662 6.77015V6.77015Z" fill="#1B2735"/>
<path d="M21.9188 33.6692C21.5787 33.6696 21.2462 33.5686 20.9632 33.3791C20.6803 33.1896 20.4598 32.92 20.3295 32.6045C20.1993 32.2891 20.1652 31.9419 20.2315 31.607C20.2979 31.2721 20.4617 30.9644 20.7023 30.7231L30.7271 20.6575C31.0503 20.334 31.4882 20.1526 31.9446 20.1533C32.4009 20.154 32.8383 20.3367 33.1605 20.6612C33.4827 20.9856 33.6633 21.4253 33.6627 21.8836C33.662 22.3418 33.48 22.7809 33.1569 23.1044L23.1345 33.1651C22.9751 33.3257 22.7856 33.4529 22.5769 33.5394C22.3683 33.6259 22.1446 33.67 21.9188 33.6692ZM31.9412 21.6083C31.9055 21.6084 31.8702 21.6155 31.8374 21.6294C31.8045 21.6433 31.7747 21.6636 31.7497 21.6891L21.7233 31.7482C21.6733 31.7998 21.6454 31.8689 21.6454 31.9409C21.6454 32.0128 21.6733 32.082 21.7233 32.1335C21.7747 32.1837 21.8435 32.2118 21.9152 32.2118C21.9869 32.2118 22.0557 32.1837 22.1071 32.1335L32.1407 22.0664C32.1654 22.0419 32.1851 22.0127 32.1985 21.9805C32.2118 21.9484 32.2187 21.9138 32.2187 21.879C32.2187 21.8441 32.2118 21.8096 32.1985 21.7774C32.1851 21.7452 32.1654 21.716 32.1407 21.6915C32.1148 21.6649 32.0837 21.6438 32.0494 21.6295C32.0151 21.6152 31.9783 21.608 31.9412 21.6083V21.6083Z" fill="#1B2735"/>
<path d="M30.1255 38C29.7854 38.0001 29.4529 37.899 29.1701 37.7093C28.8872 37.5197 28.6668 37.2501 28.5365 36.9346C28.4063 36.6192 28.3722 36.272 28.4385 35.9371C28.5048 35.6022 28.6686 35.2945 28.909 35.053L35.6029 28.3319C35.9258 28.0087 36.3631 27.8273 36.819 27.8273C37.2749 27.8273 37.7122 28.0087 38.0351 28.3319C38.1963 28.4916 38.3243 28.6819 38.4116 28.8918C38.499 29.1016 38.544 29.3267 38.544 29.5541C38.544 29.7815 38.499 30.0067 38.4116 30.2165C38.3243 30.4263 38.1963 30.6166 38.0351 30.7764L31.3436 37.4951C31.1838 37.6558 30.9939 37.7831 30.7848 37.8698C30.5758 37.9565 30.3517 38.0007 30.1255 38V38ZM36.817 29.2827C36.7816 29.2828 36.7466 29.29 36.714 29.3039C36.6814 29.3178 36.6519 29.338 36.6271 29.3635L29.93 36.0814C29.8791 36.1325 29.8505 36.2018 29.8505 36.2741C29.8505 36.3463 29.8791 36.4156 29.93 36.4667C29.9809 36.5178 30.0499 36.5465 30.1219 36.5465C30.1939 36.5465 30.2629 36.5178 30.3138 36.4667L37.0133 29.7407C37.0381 29.7162 37.0577 29.6869 37.0711 29.6547C37.0845 29.6224 37.0914 29.5879 37.0914 29.5529C37.0914 29.518 37.0845 29.4834 37.0711 29.4512C37.0577 29.4189 37.0381 29.3897 37.0133 29.3651C36.961 29.3131 36.8906 29.2836 36.817 29.2827V29.2827Z" fill="#1B2735"/>
<path d="M31.2076 34.6839L25.4502 28.903L29.1994 25.1386L34.9568 30.9194L31.2076 34.6839ZM27.4978 28.903L31.2076 32.6271L32.9068 30.9194L29.1978 27.1953L27.4978 28.903Z" fill="#1B2735"/>
<path d="M6.80742 7.81663C6.55283 7.81714 6.30765 7.72005 6.12194 7.5452L6.10826 7.53147L0.291313 1.69087C0.19762 1.59681 0.123592 1.48489 0.0735767 1.36171C0.0235615 1.23852 -0.00143234 1.10654 6.33739e-05 0.973514C0.00174459 0.844627 0.0290091 0.71737 0.0802617 0.59919C0.131514 0.48101 0.205726 0.37428 0.298554 0.285244C0.391865 0.193212 0.502394 0.120634 0.623771 0.0716913C0.745148 0.0227491 0.874972 -0.00158883 1.00576 8.03988e-05C1.13368 0.00166769 1.26001 0.0287659 1.37741 0.0798003C1.49482 0.130835 1.60094 0.204788 1.68963 0.297361L7.50095 6.13312C7.59464 6.22718 7.66867 6.33909 7.71868 6.46228C7.7687 6.58546 7.79369 6.71745 7.7922 6.85047C7.79062 6.9793 7.76348 7.10652 7.71237 7.2247C7.66126 7.34287 7.58719 7.44963 7.49451 7.53874C7.31056 7.71814 7.06386 7.81791 6.80742 7.81663Z" fill="#1B2735"/>
<path d="M11.0092 19.1566L10.5265 18.6719L10.4782 18.7204L9.56824 17.8067L12.7647 14.5964C12.8534 14.5038 12.9596 14.4299 13.077 14.3788C13.1944 14.3278 13.3207 14.3007 13.4486 14.2991C13.5795 14.2975 13.7094 14.3219 13.8309 14.3708C13.9524 14.4198 14.0631 14.4923 14.1566 14.5843C14.2493 14.6734 14.3234 14.7801 14.3745 14.8983C14.4256 15.0165 14.4527 15.1437 14.4543 15.2726C14.4558 15.4056 14.4308 15.5376 14.3808 15.6607C14.3308 15.7839 14.2568 15.8958 14.1631 15.9899L11.0092 19.1566Z" fill="#1B2735"/>
<path d="M14.3319 22.6868L13.422 21.7732L13.4381 21.757L12.9553 21.2723L17.1093 17.1007C17.1979 17.0081 17.3041 16.9341 17.4215 16.8831C17.5389 16.8321 17.6652 16.805 17.7931 16.8034C18.0569 16.8019 18.3108 16.9042 18.5003 17.0886C18.5932 17.1776 18.6674 17.2843 18.7186 17.4025C18.7699 17.5207 18.7971 17.6479 18.7988 17.7768C18.8003 17.9098 18.7753 18.0418 18.7253 18.165C18.6753 18.2882 18.6013 18.4001 18.5076 18.4942L14.3319 22.6868Z" fill="#1B2735"/>
<path d="M17.5825 26.1847L16.6725 25.271L16.7369 25.2064L16.2542 24.7217L19.6116 21.3498C19.7003 21.2573 19.8064 21.1833 19.9238 21.1323C20.0412 21.0812 20.1675 21.0541 20.2954 21.0526C20.5597 21.0499 20.8143 21.1524 21.0034 21.3377C21.0961 21.4268 21.1702 21.5336 21.2213 21.6518C21.2724 21.7699 21.2996 21.8972 21.3011 22.026C21.3026 22.159 21.2776 22.291 21.2276 22.4142C21.1776 22.5374 21.1036 22.6493 21.0099 22.7433L17.5825 26.1847Z" fill="#1B2735"/>
</svg>
